# xmcd CD database file
#
# Track frame offsets:
#	150
#	13144
#	31720
#	49654
#	65577
#	77082
#	95218
#	111299
#	125515
#	137478
#	151065
#
# Disc length: 2210 seconds
#
# Revision: 0
# Processed by: cddbd v1.5.2PL0 Copyright (c) Steve Scherf et al.
# Submitted via: CDex 1.51
#
DISCID=8b08a00b
DTITLE=Jucie Newton - Angel Of The Morning
DYEAR=1900
DGENRE=Country
TTITLE0=Sunshine
TTITLE1=Angel Of The Morning
TTITLE2=Break It To Me Gently
TTITLE3=Cheap Love
TTITLE4=Crazy Little Thing Called Love
TTITLE5=Heart Of The Night
TTITLE6=Hurt
TTITLE7=Love's Been A Little Hard
TTITLE8=Night Time Without You
TTITLE9=Old Flame
TTITLE10=Queen Of Hearts
EXTD=
EXTT0=
EXTT1=
EXTT2=
EXTT3=
EXTT4=
EXTT5=
EXTT6=
EXTT7=
EXTT8=
EXTT9=
EXTT10=
PLAYORDER=
